<svg width="0" height="0" class="hidden">
  <symbol version="1.1" xmlns="http://www.w3.org/2000/svg" xmlns:xlink="http://www.w3.org/1999/xlink" x="0px" y="0px" enable-background="new 0 0 256 256" xml:space="preserve" viewBox="0 0 256 256" id="car">
    <metadata>Svg Vector Icons : http://www.onlinewebfonts.com/icon</metadata>
    <g>
      <g>
        <path d="M172.5,168.1c0,12.1,9.8,21.9,21.9,21.9s21.9-9.8,21.9-21.9c0-12.1-9.8-21.9-21.9-21.9C182.3,146.1,172.5,156,172.5,168.1z M179.7,168.1c0-8.2,6.6-14.8,14.8-14.8s14.8,6.6,14.8,14.8c0,8.1-6.6,14.8-14.8,14.8S179.7,176.2,179.7,168.1z M29.6,168.1c0,12.1,9.8,21.9,21.9,21.9c12.1,0,21.9-9.8,21.9-21.9c0-12.1-9.8-21.9-21.9-21.9C39.4,146.1,29.6,156,29.6,168.1z M36.8,168.1c0-8.2,6.6-14.8,14.8-14.8c8.2,0,14.8,6.6,14.8,14.8c0,8.1-6.6,14.8-14.8,14.8C43.4,182.8,36.8,176.2,36.8,168.1z M10.4,128.3c-0.6,8.7-0.4,20.6-0.3,27.6c0.9,9.4,3.8,12.1,14.5,15.1c1.6-30,26.5-33.1,38.1-27.9c17.3,7.7,16.6,27.7,16.6,27.7h87.4c0,0-1.3-16,12.5-25.6c13.6-9.5,41.8-2.5,41,25.6c8.1,3.5,33.8-0.6,23.3-39.9c-4.4-12.4-13-7.8-47.7-18.1c-15.6-4.6-18.7-21.5-44.2-41.9c-5.9-4.7-17.7-4.9-24.5-4.9c-50-0.1-79.4,21.6-99.3,44C18.3,114.5,13,121.1,10.4,128.3L10.4,128.3z M226.5,141.5c-0.8-1.3-0.6-3.2,0-5H241c0,0,2.5,4.6-0.2,12.1C237.5,148.8,232.6,150.4,226.5,141.5L226.5,141.5z M113,112.6V76c0,0,25.7-5.9,31.4-0.2c5.7,5.7,30.9,30.6,31.3,31.4c0.4,0.8,1.9,3.5,0,5.3H113L113,112.6z M50.4,105.5c23.5-23.6,47.2-26.8,47.2-26.8v31.9l-1.4,2c0,0-40.3-0.4-43.5-0.4S48.7,107.2,50.4,105.5z M12.2,129.8H25c-1.8,9.3-8.5,11.1-8.5,11.1h-4.3V129.8z"></path>
      </g>
    </g>
  </symbol>
</svg>